<svg width="173" height="40" viewBox="0 0 173 40" fill="none" xmlns="http://www.w3.org/2000/svg">
<path d="M105.457 14.512C107.089 14.512 108.401 15.016 109.393 16.024C110.401 17.016 110.905 18.408 110.905 20.2V28H107.545V20.656C107.545 19.616 107.281 18.824 106.753 18.28C106.225 17.72 105.505 17.44 104.593 17.44C103.681 17.44 102.953 17.72 102.409 18.28C101.881 18.824 101.617 19.616 101.617 20.656V28H98.2571V20.656C98.2571 19.616 97.9931 18.824 97.4651 18.28C96.9371 17.72 96.2171 17.44 95.3051 17.44C94.3771 17.44 93.6411 17.72 93.0971 18.28C92.5691 18.824 92.3051 19.616 92.3051 20.656V28H88.9451V14.704H92.3051V16.312C92.7371 15.752 93.2891 15.312 93.9611 14.992C94.6491 14.672 95.4011 14.512 96.2171 14.512C97.2571 14.512 98.1851 14.736 99.0011 15.184C99.8171 15.616 100.449 16.24 100.897 17.056C101.329 16.288 101.953 15.672 102.769 15.208C103.601 14.744 104.497 14.512 105.457 14.512Z" fill="white"/>
<path d="M119.998 28.216C118.718 28.216 117.566 27.936 116.542 27.376C115.518 26.8 114.71 25.992 114.118 24.952C113.542 23.912 113.254 22.712 113.254 21.352C113.254 19.992 113.55 18.792 114.142 17.752C114.75 16.712 115.574 15.912 116.614 15.352C117.654 14.776 118.814 14.488 120.094 14.488C121.374 14.488 122.534 14.776 123.574 15.352C124.614 15.912 125.43 16.712 126.022 17.752C126.63 18.792 126.934 19.992 126.934 21.352C126.934 22.712 126.622 23.912 125.998 24.952C125.39 25.992 124.558 26.8 123.502 27.376C122.462 27.936 121.294 28.216 119.998 28.216ZM119.998 25.288C120.606 25.288 121.174 25.144 121.702 24.856C122.246 24.552 122.678 24.104 122.998 23.512C123.318 22.92 123.478 22.2 123.478 21.352C123.478 20.088 123.142 19.12 122.47 18.448C121.814 17.76 121.006 17.416 120.046 17.416C119.086 17.416 118.278 17.76 117.622 18.448C116.982 19.12 116.662 20.088 116.662 21.352C116.662 22.616 116.974 23.592 117.598 24.28C118.238 24.952 119.038 25.288 119.998 25.288Z" fill="white"/>
<path d="M136.766 14.512C138.35 14.512 139.63 15.016 140.606 16.024C141.582 17.016 142.07 18.408 142.07 20.2V28H138.71V20.656C138.71 19.6 138.446 18.792 137.918 18.232C137.39 17.656 136.67 17.368 135.758 17.368C134.83 17.368 134.094 17.656 133.55 18.232C133.022 18.792 132.758 19.6 132.758 20.656V28H129.398V14.704H132.758V16.36C133.206 15.784 133.774 15.336 134.462 15.016C135.166 14.68 135.934 14.512 136.766 14.512Z" fill="white"/>
<path d="M157.625 21.064C157.625 21.544 157.593 21.976 157.529 22.36H147.809C147.889 23.32 148.225 24.072 148.817 24.616C149.409 25.16 150.137 25.432 151.001 25.432C152.249 25.432 153.137 24.896 153.665 23.824H157.289C156.905 25.104 156.169 26.16 155.081 26.992C153.993 27.808 152.657 28.216 151.073 28.216C149.793 28.216 148.641 27.936 147.617 27.376C146.609 26.8 145.817 25.992 145.241 24.952C144.681 23.912 144.401 22.712 144.401 21.352C144.401 19.976 144.681 18.768 145.241 17.728C145.801 16.688 146.585 15.888 147.593 15.328C148.601 14.768 149.761 14.488 151.073 14.488C152.337 14.488 153.465 14.76 154.457 15.304C155.465 15.848 156.241 16.624 156.785 17.632C157.345 18.624 157.625 19.768 157.625 21.064ZM154.145 20.104C154.129 19.24 153.817 18.552 153.209 18.04C152.601 17.512 151.857 17.248 150.977 17.248C150.145 17.248 149.441 17.504 148.865 18.016C148.305 18.512 147.961 19.208 147.833 20.104H154.145Z" fill="white"/>
<path d="M172.798 14.704L164.566 34.288H160.99L163.87 27.664L158.542 14.704H162.31L165.742 23.992L169.222 14.704H172.798Z" fill="white"/>
<path d="M69.1349 11.248V23.008C69.1349 24.64 68.6629 25.912 67.7189 26.824C66.7749 27.72 65.5109 28.168 63.9269 28.168C62.3269 28.168 61.0309 27.704 60.0389 26.776C59.0629 25.848 58.5749 24.552 58.5749 22.888H61.9349C61.9509 23.608 62.1189 24.168 62.4389 24.568C62.7749 24.968 63.2549 25.168 63.8789 25.168C64.4869 25.168 64.9509 24.976 65.2709 24.592C65.5909 24.208 65.7509 23.68 65.7509 23.008V11.248H69.1349ZM85.2704 16.432C85.2704 17.328 85.0544 18.168 84.6224 18.952C84.2064 19.736 83.5424 20.368 82.6304 20.848C81.7344 21.328 80.5984 21.568 79.2224 21.568H76.4144V28H73.0544V11.248H79.2224C80.5184 11.248 81.6224 11.472 82.5344 11.92C83.4464 12.368 84.1264 12.984 84.5744 13.768C85.0384 14.552 85.2704 15.44 85.2704 16.432ZM79.0784 18.856C80.0064 18.856 80.6944 18.648 81.1424 18.232C81.5904 17.8 81.8144 17.2 81.8144 16.432C81.8144 14.8 80.9024 13.984 79.0784 13.984H76.4144V18.856H79.0784Z" fill="white"/>
<path d="M34.1422 5.85781C30.3647 2.08031 25.3422 0 20 0C14.6578 0 9.63531 2.08031 5.85781 5.85781C2.08031 9.63531 0 14.6578 0 20C0 25.3422 2.08039 30.3646 5.85781 34.1422C9.63523 37.9198 14.6578 40 20 40C25.3422 40 30.3647 37.9197 34.1422 34.1422C37.9197 30.3647 40 25.3422 40 20C40 14.6578 37.9196 9.63539 34.1422 5.85781Z" fill="#33CC95"/>
<g clip-path="url(#clip0_35212_417)">
<path d="M20.5714 8V33.1429" stroke="white" stroke-width="2" stroke-linecap="round" stroke-linejoin="round"/>
<path d="M26.2857 12.5714H17.7143C16.6534 12.5714 15.636 12.9929 14.8859 13.743C14.1357 14.4931 13.7143 15.5106 13.7143 16.5714C13.7143 17.6323 14.1357 18.6497 14.8859 19.3999C15.636 20.15 16.6534 20.5714 17.7143 20.5714H23.4286C24.4894 20.5714 25.5069 20.9929 26.257 21.743C27.0072 22.4932 27.4286 23.5106 27.4286 24.5714C27.4286 25.6323 27.0072 26.6497 26.257 27.3999C25.5069 28.15 24.4894 28.5714 23.4286 28.5714H13.7143" stroke="white" stroke-width="2" stroke-linecap="round" stroke-linejoin="round"/>
</g>
<defs>
<clipPath id="clip0_35212_417">
<rect width="27.4286" height="27.4286" fill="white" transform="translate(6.85715 6.85714)"/>
</clipPath>
</defs>
</svg>
