<svg width="173" height="40" viewBox="0 0 173 40" fill="none" xmlns="http://www.w3.org/2000/svg">
<path d="M105.457 14.512C107.089 14.512 108.401 15.016 109.393 16.024C110.401 17.016 110.905 18.408 110.905 20.2V28H107.545V20.656C107.545 19.616 107.281 18.824 106.753 18.28C106.225 17.72 105.505 17.44 104.593 17.44C103.681 17.44 102.953 17.72 102.409 18.28C101.881 18.824 101.617 19.616 101.617 20.656V28H98.2571V20.656C98.2571 19.616 97.9931 18.824 97.4651 18.28C96.9371 17.72 96.2171 17.44 95.3051 17.44C94.3771 17.44 93.6411 17.72 93.0971 18.28C92.5691 18.824 92.3051 19.616 92.3051 20.656V28H88.9451V14.704H92.3051V16.312C92.7371 15.752 93.2891 15.312 93.9611 14.992C94.6491 14.672 95.4011 14.512 96.2171 14.512C97.2571 14.512 98.1851 14.736 99.0011 15.184C99.8171 15.616 100.449 16.24 100.897 17.056C101.329 16.288 101.953 15.672 102.769 15.208C103.601 14.744 104.497 14.512 105.457 14.512Z" fill="white"/>
<path d="M119.998 28.216C118.718 28.216 117.566 27.936 116.542 27.376C115.518 26.8 114.71 25.992 114.118 24.952C113.542 23.912 113.254 22.712 113.254 21.352C113.254 19.992 113.55 18.792 114.142 17.752C114.75 16.712 115.574 15.912 116.614 15.352C117.654 14.776 118.814 14.488 120.094 14.488C121.374 14.488 122.534 14.776 123.574 15.352C124.614 15.912 125.43 16.712 126.022 17.752C126.63 18.792 126.934 19.992 126.934 21.352C126.934 22.712 126.622 23.912 125.998 24.952C125.39 25.992 124.558 26.8 123.502 27.376C122.462 27.936 121.294 28.216 119.998 28.216ZM119.998 25.288C120.606 25.288 121.174 25.144 121.702 24.856C122.246 24.552 122.678 24.104 122.998 23.512C123.318 22.92 123.478 22.2 123.478 21.352C123.478 20.088 123.142 19.12 122.47 18.448C121.814 17.76 121.006 17.416 120.046 17.416C119.086 17.416 118.278 17.76 117.622 18.448C116.982 19.12 116.662 20.088 116.662 21.352C116.662 22.616 116.974 23.592 117.598 24.28C118.238 24.952 119.038 25.288 119.998 25.288Z" fill="white"/>
<path d="M136.766 14.512C138.35 14.512 139.63 15.016 140.606 16.024C141.582 17.016 142.07 18.408 142.07 20.2V28H138.71V20.656C138.71 19.6 138.446 18.792 137.918 18.232C137.39 17.656 136.67 17.368 135.758 17.368C134.83 17.368 134.094 17.656 133.55 18.232C133.022 18.792 132.758 19.6 132.758 20.656V28H129.398V14.704H132.758V16.36C133.206 15.784 133.774 15.336 134.462 15.016C135.166 14.68 135.934 14.512 136.766 14.512Z" fill="white"/>
<path d="M157.625 21.064C157.625 21.544 157.593 21.976 157.529 22.36H147.809C147.889 23.32 148.225 24.072 148.817 24.616C149.409 25.16 150.137 25.432 151.001 25.432C152.249 25.432 153.137 24.896 153.665 23.824H157.289C156.905 25.104 156.169 26.16 155.081 26.992C153.993 27.808 152.657 28.216 151.073 28.216C149.793 28.216 148.641 27.936 147.617 27.376C146.609 26.8 145.817 25.992 145.241 24.952C144.681 23.912 144.401 22.712 144.401 21.352C144.401 19.976 144.681 18.768 145.241 17.728C145.801 16.688 146.585 15.888 147.593 15.328C148.601 14.768 149.761 14.488 151.073 14.488C152.337 14.488 153.465 14.76 154.457 15.304C155.465 15.848 156.241 16.624 156.785 17.632C157.345 18.624 157.625 19.768 157.625 21.064ZM154.145 20.104C154.129 19.24 153.817 18.552 153.209 18.04C152.601 17.512 151.857 17.248 150.977 17.248C150.145 17.248 149.441 17.504 148.865 18.016C148.305 18.512 147.961 19.208 147.833 20.104H154.145Z" fill="white"/>
<path d="M172.798 14.704L164.566 34.288H160.99L163.87 27.664L158.542 14.704H162.31L165.742 23.992L169.222 14.704H172.798Z" fill="white"/>
<path d="M66.4147 13.12C65.8067 13.12 65.3027 12.936 64.9027 12.568C64.5187 12.184 64.3267 11.712 64.3267 11.152C64.3267 10.592 64.5187 10.128 64.9027 9.76C65.3027 9.376 65.8067 9.184 66.4147 9.184C67.0067 9.184 67.4947 9.376 67.8787 9.76C68.2627 10.128 68.4547 10.592 68.4547 11.152C68.4547 11.712 68.2627 12.184 67.8787 12.568C67.4947 12.936 67.0067 13.12 66.4147 13.12ZM68.0707 30.184C68.0707 31.656 67.7027 32.712 66.9667 33.352C66.2467 34.008 65.2067 34.336 63.8467 34.336H62.3587V31.48H63.3187C63.8307 31.48 64.1907 31.376 64.3987 31.168C64.6067 30.976 64.7107 30.656 64.7107 30.208V14.704H68.0707V30.184ZM74.7504 16.624C75.1824 16.016 75.7744 15.512 76.5264 15.112C77.2944 14.696 78.1664 14.488 79.1424 14.488C80.2784 14.488 81.3024 14.768 82.2144 15.328C83.1424 15.888 83.8704 16.688 84.3984 17.728C84.9424 18.752 85.2144 19.944 85.2144 21.304C85.2144 22.664 84.9424 23.872 84.3984 24.928C83.8704 25.968 83.1424 26.776 82.2144 27.352C81.3024 27.928 80.2784 28.216 79.1424 28.216C78.1664 28.216 77.3024 28.016 76.5504 27.616C75.8144 27.216 75.2144 26.712 74.7504 26.104V34.336H71.3904V14.704H74.7504V16.624ZM81.7824 21.304C81.7824 20.504 81.6144 19.816 81.2784 19.24C80.9584 18.648 80.5264 18.2 79.9824 17.896C79.4544 17.592 78.8784 17.44 78.2544 17.44C77.6464 17.44 77.0704 17.6 76.5264 17.92C75.9984 18.224 75.5664 18.672 75.2304 19.264C74.9104 19.856 74.7504 20.552 74.7504 21.352C74.7504 22.152 74.9104 22.848 75.2304 23.44C75.5664 24.032 75.9984 24.488 76.5264 24.808C77.0704 25.112 77.6464 25.264 78.2544 25.264C78.8784 25.264 79.4544 25.104 79.9824 24.784C80.5264 24.464 80.9584 24.008 81.2784 23.416C81.6144 22.824 81.7824 22.12 81.7824 21.304Z" fill="white"/>
<path d="M34.1422 5.85781C30.3647 2.08031 25.3422 0 20 0C14.6578 0 9.63531 2.08031 5.85781 5.85781C2.08031 9.63531 0 14.6578 0 20C0 25.3422 2.08039 30.3646 5.85781 34.1422C9.63523 37.9198 14.6578 40 20 40C25.3422 40 30.3647 37.9197 34.1422 34.1422C37.9197 30.3647 40 25.3422 40 20C40 14.6578 37.9196 9.63539 34.1422 5.85781Z" fill="#33CC95"/>
<g clip-path="url(#clip0_35212_417)">
<path d="M20.5714 8V33.1429" stroke="white" stroke-width="2" stroke-linecap="round" stroke-linejoin="round"/>
<path d="M26.2857 12.5714H17.7143C16.6534 12.5714 15.636 12.9929 14.8859 13.743C14.1357 14.4931 13.7143 15.5106 13.7143 16.5714C13.7143 17.6323 14.1357 18.6497 14.8859 19.3999C15.636 20.15 16.6534 20.5714 17.7143 20.5714H23.4286C24.4894 20.5714 25.5069 20.9929 26.257 21.743C27.0072 22.4932 27.4286 23.5106 27.4286 24.5714C27.4286 25.6323 27.0072 26.6497 26.257 27.3999C25.5069 28.15 24.4894 28.5714 23.4286 28.5714H13.7143" stroke="white" stroke-width="2" stroke-linecap="round" stroke-linejoin="round"/>
</g>
<defs>
<clipPath id="clip0_35212_417">
<rect width="27.4286" height="27.4286" fill="white" transform="translate(6.85715 6.85714)"/>
</clipPath>
</defs>
</svg>
